<svg xmlns="http://www.w3.org/2000/svg" width="33.936" height="23.755" viewBox="0 0 33.936 23.755">
  <path id="Icon_awesome-cloud-upload-alt" data-name="Icon awesome-cloud-upload-alt" d="M28.506,12.569a5.1,5.1,0,0,0-4.751-6.925,5.064,5.064,0,0,0-2.826.859A8.485,8.485,0,0,0,5.09,10.734c0,.143.005.286.011.43A7.638,7.638,0,0,0,7.636,26.005H27.149a6.787,6.787,0,0,0,1.357-13.437ZM20.86,15.824H17.392v5.939a.851.851,0,0,1-.848.848H14a.851.851,0,0,1-.848-.848V15.824H9.682a.847.847,0,0,1-.6-1.448l5.589-5.589a.851.851,0,0,1,1.2,0l5.589,5.589a.848.848,0,0,1-.6,1.448Z" transform="translate(0 -2.25)" opacity="0.1"/>
</svg>
