<svg xmlns="http://www.w3.org/2000/svg" width="16.344" height="17.077" viewBox="0 0 16.344 17.077">
  <path id="Icon_awesome-file-import" data-name="Icon awesome-file-import" d="M.511,9.606A.524.524,0,0,0,0,10.139v1.067a.524.524,0,0,0,.511.534H4.086V9.606Zm15.61-6.1L13,.233A.749.749,0,0,0,12.453,0h-.195V4.269h4.086v-.2A.816.816,0,0,0,16.121,3.5ZM11.237,4.536V0H4.852a.782.782,0,0,0-.766.8V9.606H8.172V7.431a.51.51,0,0,1,.875-.377L12.1,10.273a.586.586,0,0,1,0,.8L9.044,14.289a.51.51,0,0,1-.875-.377V11.74H4.086v4.536a.782.782,0,0,0,.766.8H15.578a.782.782,0,0,0,.766-.8V5.337H12A.786.786,0,0,1,11.237,4.536Z" fill="#ff4c29"/>
</svg>
